<svg xmlns="http://www.w3.org/2000/svg" viewBox="0 0 135.78 279.34"><defs><style>.cls-1{fill:#f28d14;}</style></defs><title>bridge loop</title><g id="Layer_2" data-name="Layer 2"><g id="Layer_1-2" data-name="Layer 1"><g id="bridge_loop" data-name="bridge loop"><path class="cls-1" d="M117.48,86.6l1.23,106.8.31,26.7c.09,7.78-.48,15.89.74,23.6a23.15,23.15,0,0,0,2.68,8.1c1.53,2.63,4,4.42,5.73,6.83C135.92,269.2,114,267.2,109.1,267l-12.15-.47c-3.4-.13-7.13-.7-10.49.15a8.08,8.08,0,0,0-5.23,3.94,4.83,4.83,0,0,0-.57,1.26c0-.38-.71,3.31.54,1.54.06-.09-.11-2.43-.11-2.59a30.34,30.34,0,0,1,.53-3.65c1.32-7.77,3.7-16.8,11.5-20.47,5.6-2.64,12.71,1.56,16-5.49,5.4-11.66-6.76-26-12-35.36-3.8-6.8-5.77-14.28-8.62-21.48a59.07,59.07,0,0,0-10.3-16.85c-6.48-7.61-11.58-14.6-12.16-24.95-.49-8.77,1.94-17,2.67-25.68C70.13,99.58,52.32,89.36,38.8,82.66L40.18,86C47.47,60.89,24.9,42.71,4.52,33.85L5.6,38c3.16-4.35,4.35-9.33,4.73-14.63.18-2.56,1.55-16.39-.49-17.16L7.74,2.48a10.57,10.57,0,0,0,4.92,11.93c5.51,3.38,11.93,1.57,18,1.67,4,.06,6.14,2,9.63,3.21,3.24,1.11,6.79-.95,9.56,1.55s3.2,7.4,4.5,10.76a17.11,17.11,0,0,0,4.2,6.54c3.38,3.15,8,4.51,12.2,6,2.44.88,5.18,1.76,7.18,3.51s2.34,4.21,3.52,6.49c5,9.72,19.71,3.15,15.73-7.11l-5,2.92,20.5,16.43c3.08,2.47,6.57,4.79,9.4,7.56,1.81,1.77,3,3.25,1.87,5.82-.87,1.91-2.94,3.45-4.49,4.77-2.95,2.5,1.31,6.73,4.24,4.24,6.7-5.68,9.64-13.14,2.1-19.51-9.57-8.09-19.59-15.71-29.37-23.55-2-1.64-6.22-.2-5,2.92.7,1.81.64,3.77-1.65,4-2,.24-2.59-.93-3.51-2.68-.79-1.5-1.12-3-2.14-4.43A17.81,17.81,0,0,0,76.47,40c-3.29-1.45-6.82-2.31-10.06-3.86-5.16-2.47-6.38-6.54-8.06-11.67-1.15-3.52-2.81-7.14-6-9.31-3.83-2.63-8.1-.84-12.07-2.61a25,25,0,0,0-13-2.35c-4.08.28-16,1.37-13.81-6.14A3.07,3.07,0,0,0,11.43.39C4.88-2.07,4.62,7.9,4.52,11.65c-.21,8,.88,16.42-4.1,23.28A3,3,0,0,0,1.49,39c17.72,7.7,39.4,23,32.9,45.42a3,3,0,0,0,1.38,3.39c7.54,3.74,15,8.26,21.13,14,7.94,7.45,5.54,16,4.07,25.59C58.63,142.73,60.5,156,70.61,168c5.63,6.68,10.21,12.83,13.22,21.14,2.53,7,4.74,14,8.44,20.49,3.86,6.77,8.89,13.19,11,20.8a19.41,19.41,0,0,1,.87,5.18c0,3.67-2.56,3.78-5.5,4.09-3.4.36-6.12.56-9.2,2.23-5.87,3.19-9.56,9-11.62,15.18-1.71,5.15-4.58,14.06-1.85,19.32,2.33,4.49,7,3.39,9.4-.26,1.4-2.16,1.71-3.46,4.6-3.84a31.65,31.65,0,0,1,5.1.17l14,.54c6.84.26,15.41,1.87,21.54-2,4.58-2.93,6.56-8.42,4-13.38-1.32-2.58-3.57-4.41-5.4-6.61-2.91-3.48-3.73-7.61-4-12.05-.47-8.88-.27-17.84-.37-26.73L123.48,86.6c0-3.86-6-3.87-6,0Z"/></g></g></g></svg>