<svg xmlns="http://www.w3.org/2000/svg" xmlns:xlink="http://www.w3.org/1999/xlink" width="1920" height="1080" viewBox="0 0 1920 1080"><defs><style>.a{clip-path:url(#b);}.b{fill:#e9e9e9;}.c{fill:#ff6702;}.d,.e,.f{fill:#000630;}.d{font-size:48px;font-family:Roboto-Medium, Roboto;font-weight:500;}.e{font-size:250px;font-family:Roboto-Black, Roboto;font-weight:800;}.f{font-size:36px;font-family:RobotoCondensed-Light, Roboto;font-weight:300;text-decoration:underline;}.g{fill:#fff;}</style><clipPath id="b"><rect width="1920" height="1080"/></clipPath></defs><g id="a" class="a"><rect class="g" width="1920" height="1080"/><rect class="b" width="404" height="529" transform="translate(113 297)"/><rect class="b" width="404" height="529" transform="translate(972 297)"/><rect class="b" width="404" height="529" transform="translate(543 297)"/><rect class="c" width="404" height="119" transform="translate(113 707)"/><rect class="c" width="404" height="119" transform="translate(972 707)"/><rect class="c" width="404" height="119" transform="translate(542 707)"/><text class="d" transform="translate(131 313)"><tspan x="98.746" y="50">October</tspan></text><text class="d" transform="translate(560 313)"><tspan x="98.746" y="50">October</tspan></text><text class="d" transform="translate(990 313)"><tspan x="73.012" y="50">November</tspan></text><text class="e" transform="translate(113 361)"><tspan x="57.225" y="262">10</tspan></text><text class="e" transform="translate(543 361)"><tspan x="56.725" y="262">24</tspan></text><text class="e" transform="translate(972 361)"><tspan x="129.612" y="262">6</tspan></text><text class="f" transform="translate(113 733)"><tspan x="17.474" y="38">Seminole Valley Stampede</tspan></text><text class="f" transform="translate(543 733)"><tspan x="44.913" y="38">Taylor University Invite</tspan></text><text class="f" transform="translate(972 733)"><tspan x="79.129" y="38">CL Championship</tspan></text><rect class="b" width="404" height="529" transform="translate(1402 297)"/><rect class="c" width="404" height="119" transform="translate(1401 707)"/><text class="d" transform="translate(1419 313)"><tspan x="133.82" y="50">April</tspan></text><text class="e" transform="translate(1402 361)"><tspan x="129.612" y="262">9</tspan></text><text class="f" transform="translate(1401 733)"><tspan x="72.502" y="38">NAIA XC Nationals</tspan></text></g></svg>