<svg xmlns="http://www.w3.org/2000/svg" width="395.319" height="430.525" viewBox="0 0 395.319 430.525"><defs><style>.a{fill:none;stroke:#f28d14;stroke-width:25px;}</style></defs><path class="a" d="M1187.639,512.97c-2.917,4.376-40.845,14.588-40.845,14.588s-7.294-2.918-7.294,26.258-4.376,59.809,0,70.02,37.928,18.964,37.928,18.964,29.175,2.917,29.175,5.835v51.056s-5.834,18.964,0,29.175,23.34,13.128,27.716,33.551,4.376,40.845,16.046,59.809,68.562,53.974,91.9,53.974,42.3-1.458,49.6-7.294,13.129-23.34,30.634-27.716,62.726-20.423,74.4-37.927c4.8-7.195,8.115-28.188,9.846-52.813,2.251-31.938,1.144-69.883-4.011-78.475-8.753-14.588-134.206-99.2-134.206-99.2L1225.567,476.5s-39.386-13.129-37.927,0S1190.557,508.594,1187.639,512.97Z" transform="translate(-1125.056 -458.175)"/></svg>