<svg xmlns="http://www.w3.org/2000/svg" viewBox="0 0 517.78 550.03"><defs><style>.cls-1{fill:#c9c9c9;}.cls-2{fill:#bfbfbf;}.cls-3,.cls-5,.cls-6{fill:none;stroke:#939292;stroke-miterlimit:10;}.cls-4{fill:#bee2ea;}.cls-5{stroke-dasharray:4.01 4.01;}.cls-6{stroke-dasharray:4;}.cls-7{font-size:28px;fill:#eaeaea;font-family:Roboto-Medium, Roboto;}.cls-8{font-size:9px;}.cls-13,.cls-8{fill:#939292;font-family:Roboto-Light, Roboto;}.cls-9{letter-spacing:-0.01em;}.cls-10{letter-spacing:-0.01em;}.cls-11{letter-spacing:0.01em;}.cls-12{letter-spacing:0em;}.cls-13{font-size:8px;}</style></defs><title>Asset 1</title><g id="Layer_2" data-name="Layer 2"><g id="Layer_1-2" data-name="Layer 1"><rect id="background" class="cls-1" x="3.42" y="0.53" width="514" height="549"/><polygon id="city_limits" data-name="city limits" class="cls-2" points="517.42 346.53 357.42 236.53 357.42 224.53 381.42 217.53 385.42 204.53 385.42 188.53 403.42 188.53 406.42 178.53 395.42 172.53 389.42 172.53 383.42 182.53 370.42 182.53 362.42 166.53 393.42 162.53 393.42 134.53 362.42 139.53 360.42 107.53 307.42 107.53 304.42 86.53 310.42 82.53 310.42 51.53 304.42 45.53 269.42 45.53 231.42 45.53 231.42 33.53 198.42 33.53 198.42 0.53 165.42 0.53 165.42 50.53 139.42 49.53 139.42 70.53 117.42 60.53 107.42 69.53 97.42 63.53 100.42 46.53 84.42 50.53 68.42 44.53 55.42 31.53 19.42 27.53 16.42 0.53 3.42 0.53 3.42 227.53 32.42 226.53 31.92 251.03 45.92 252.03 45.92 295.03 60.92 295.03 60.92 274.03 102.92 274.03 102.92 315.03 86.92 315.03 86.92 331.03 140.92 330.03 141.92 314.03 159.92 315.03 160.92 302.03 171.92 298.03 164.92 289.03 167.92 277.03 179.92 277.03 197.92 267.03 201.92 279.03 210.92 280.03 217.92 302.03 196.92 312.03 203.92 332.03 198.92 364.03 207.92 367.03 225.92 367.03 233.92 371.03 232.92 377.03 224.92 385.03 216.92 393.03 218.92 397.03 238.92 407.03 249.92 412.03 252.92 419.03 249.92 424.03 240.92 432.03 226.92 439.03 221.92 451.03 217.92 456.03 206.92 461.03 203.92 466.03 204.92 471.03 208.92 474.03 214.92 480.03 217.92 488.03 216.92 497.03 269.92 497.03 270.92 543.03 295.92 543.03 313.92 501.03 334.92 480.03 334.92 464.03 357.92 464.03 356.92 440.03 389.92 442.03 391.92 480.03 395.92 483.03 411.92 484.03 412.92 550.03 439.92 550.03 440.92 495.03 516.92 496.03 517.42 346.53"/><path id="_33" data-name="33" class="cls-3" d="M517.42,451.53l-222-229s-11-21-10-24,0-3,0-3l-56-39s-2-4-7.5-3.5-81.5,2.5-81.5,2.5-21,6-37-17-29-45-29-45-13-13-20-18-51-42-51-42"/><path id="_15" data-name="15" class="cls-3" d="M231.92,0V46s-4,26-5,29-9,32-9,32v19l-7,13v58s1,6,4,7,7,3,6,8,29,91,29,91a34.36,34.36,0,0,1,3,14c0,8,3,90,3,90s1,10,0,17-3,31-2,38,2,87,2,87"/><path id="plymouth" class="cls-3" d="M328.9,257.07l-109,0s-16,2-20,7-13,9-33,9H2.92"/><line id="college" class="cls-3" x1="253.22" y1="329.04" x2="516.92" y2="329.03"/><path id="lincoln" class="cls-3" d="M3.92,173h243s11,0,18-3,60-18,68-21,43-14,52-14,110-7,110-7l22,2"/><line id="madison" class="cls-3" x1="219.59" y1="206.73" x2="287.84" y2="206.73"/><line id="_8th" data-name="8th" class="cls-3" x1="257.67" y1="329.03" x2="255.49" y2="174.68"/><path id="kercher" class="cls-3" d="M503.64,437.32c-.33-.59-54.28-.28-112.72.23-69.33.6-145,1.49-145,1.49s-18,10-26,8-12-7-19-8-197,3-197,3"/><path class="cls-4" d="M360.92,248v5l-6,2v11s0,1,4,2,5,1,5,3-1,9,1,10,2,3,3,5,0,4,2,6,7,6,9,6,5,1,6,0,1-3,5-4,6-2,8-4,2-3,2-7V273a7.47,7.47,0,0,0-3-3c-2-1-31-21-31-21A5,5,0,0,0,360.92,248Z"/><path class="cls-4" d="M211.67,456.36c-2.36,5.48-16.06,8-10.46,15.93,2.62,3.73,7.46,4.33,10.49,7.51,5.21,5.48,1.79,13.88.68,20.35-.72,4.19-.8,8.45,1,12.38,1.69,3.62,4.74,6.36,7.18,9.45,1.63,2.06,3.76,4.82,3.74,7.6,0,3.42-3.33,5.7-5.55,7.82-3.11,3-7,6.16-9.17,9.86a1.5,1.5,0,0,0,2.59,1.51c3.91-6.55,16.13-11.47,15-20.29-1.2-9.61-12.72-13.46-12.36-23.93.31-8.72,6.52-20.36-1.49-27.54-2.95-2.64-15-6.21-8.16-11.35,3.4-2.56,7.21-3.61,9-7.8.76-1.75-1.83-3.28-2.59-1.51Z"/><path class="cls-4" d="M206.66,460.48c1.72,1.06,3.93-.06,5.51-1.31a31,31,0,0,0,9.33-12.28c1.48-3.52,2.42-7.49,5.23-10.07a18.61,18.61,0,0,1,5.22-3l11.34-5c2.63-1.16,5.35-2.38,7.24-4.54s2.72-5.54,1.13-7.93a9.93,9.93,0,0,0-2.84-2.52,89.37,89.37,0,0,0-12.62-7.62c-6.41-3-13.85-4.62-18.49-9.95-.91-1-1.73-2.41-1.38-3.75a4.85,4.85,0,0,1,1.4-2.07,74.73,74.73,0,0,1,6-5.45c2.47-2,5.12-4,6.79-6.67s2.08-6.52,0-8.95c-1.35-1.58-3.46-2.28-5.48-2.75a41.55,41.55,0,0,0-12.47-1c-2.16.16-4.63.71-5.6,2.65a8.2,8.2,0,0,0-.54,3.23A20.65,20.65,0,0,1,201,384.23c-1.78,1.91-4.12,4.16-3.31,6.64a13.87,13.87,0,0,0,1,2c1.48,2.86.32,6.29-.43,9.42-.82,3.4-1.11,7,.08,10.33a12.37,12.37,0,0,0,9.4,7.84c2.14.36,4.45.17,6.32,1.25,2.31,1.34,3.25,4.33,2.88,7a17.29,17.29,0,0,1-3.32,7.2c-1,1.4-2,2.87-2.12,4.56-.09,1.46.54,2.86.88,4.28a10.78,10.78,0,0,1-3.13,10.16c-2.19,2-5.21,3.09-7,5.44-.49.63-.88,1.56-.38,2.2a1.81,1.81,0,0,0,1.42.53,6.69,6.69,0,0,0,4.4-1.52"/><path class="cls-4" d="M206.26,461.93c8.64,2.65,15.25-11.12,17.74-17.33,1.36-3.41,2.61-6.24,6-8.19a77.13,77.13,0,0,1,7.6-3.44c4.63-2,10.58-3.7,14-7.62,7.51-8.55-4.22-14.7-10.55-18.3-4.92-2.81-10.32-4.34-15.37-6.86-2.34-1.17-6.75-3.22-7.51-5.82-.89-3.05,4.7-6.75,6.58-8.32,5-4.2,13.64-13.06,5.36-19-4-2.88-11.06-3.16-15.78-3-3.23.12-7.33.47-8.84,3.84-1.08,2.41-.61,5.33-1.37,7.84-1,3.49-2.89,5.66-5.15,8.42-2.5,3.06-3.27,4.75-2.15,8.48a12.21,12.21,0,0,1,.38,7.64c-.23,1.11-.56,2.19-.76,3.3a20.38,20.38,0,0,0-.16,6.88,13.79,13.79,0,0,0,7.34,10.13c2.37,1.22,4.7,1,7.15,1.73,8,2.42,3.81,9.06,1.08,13.49-1.28,2.08-2,3.78-1.71,6.25.53,4.12,1.8,7.14-1.19,10.82-2,2.41-9.8,5.19-8.66,9.46,1,3.7,5.88,1.88,8.11.46,1.62-1,.12-3.63-1.51-2.59l-2.61.07,2.08-1.53c.82-.57,1.71-1,2.5-1.66a14.59,14.59,0,0,0,2.65-2.49,12.38,12.38,0,0,0,2.55-8.94c-.36-3.4-.7-5.86.87-9.06.76-1.55,1.93-2.88,2.58-4.52,1.14-2.84,1.47-6,0-8.77-1.36-2.59-3.54-3.48-6.31-4s-5.18-.51-7.68-2.36a11.13,11.13,0,0,1-4.47-9.49c0-4.41,2.55-8.74,1.68-13.15-.23-1.14-1.08-2.13-1.3-3.2-.72-3.38,2.08-5,3.85-7.32,2.45-3.19,3.5-6.49,4.41-10.32.72-3,1.33-5.93,4.85-6.33a34.67,34.67,0,0,1,8.74.32c3.19.46,7.38,1.33,9,4.66,1.44,3-2,7-3.92,8.72-3.35,3.16-7.8,5.67-10.5,9.48-3.67,5.18,3.74,10.06,7.67,12.1,3.45,1.79,7.17,3,10.73,4.55a74.41,74.41,0,0,1,13.84,8.14,6.84,6.84,0,0,1,2,7.23c-.68,1.77-3.35,3.12-4.93,4-2.14,1.14-4.46,2-6.67,3-4.16,1.83-9.44,3.28-12.81,6.46-2.7,2.54-3.74,6.07-5.08,9.39-1.68,4.16-7.65,15.69-13.53,13.88-1.85-.57-2.64,2.33-.8,2.89Z"/><path class="cls-4" d="M202.85,468.86c-.54-2.35-1.26-5.25.49-7.28,1.25-1.46-.86-3.59-2.12-2.12-2.55,3-2.08,6.63-1.26,10.2.43,1.88,3.33,1.08,2.89-.8Z"/><path class="cls-4" d="M216.12,368.66c-1.52-10.38.54-25.76,9.28-32.94,4.68-3.84,8.78.79,13.73.3a9,9,0,0,0,7.09-5.53c3.64-7.85-2.9-16.79-6.82-23.18-2.73-4.45-5.58-8.84-8-13.47-2.95-5.62-4.47-11.39-6.31-17.4-2.57-8.39-7.82-14.45-13.55-20.89-3.18-3.58-6.36-7.26-8.45-11.6-2.88-6-3.22-12.63-2.74-19.14.7-9.52,4.79-21.24,2.13-30.68-2.48-8.8-12.39-7.63-17.56-13.49-2.29-2.59-3.81-6.87.35-8.71,1.3-.57,2.91-.29,4.23-1a5.06,5.06,0,0,0,2.74-6.27c-.93-3.3-4-5.71-6.1-8.24-3.78-4.56-4.53-10.35-6.33-15.79-2-5.95-6.5-13-13.56-13-4.66,0-8.16,4.26-12.74,4.1-5.41-.19-9.25-6.08-13.08-9.21-5.81-4.76-13.19-5.94-19.83-9.05-4.33-2-7.3-4.81-8.63-9.51-1.09-3.85-1.14-8.16-4.21-11.13S100.14,90.05,96.57,88C91.83,85.32,91,79.47,92,74.55c1.76-8.41,10.86-12.84,12-21.38,1.18-8.85-6.34-11.86-13.74-9.93-5.56,1.46-10.87,3.95-16.36.78-4.17-2.41-7.16-6.49-10.51-9.86C56,26.8,47.64,25.24,37.5,25.64c-6.16.25-12.58,1-18.57-.94-6.6-2.09-12.86-9.24-9.39-16.39C10.38,6.58,7.8,5.06,7,6.8,3.86,13.17,6.56,20.33,12,24.52c7.67,5.88,18.13,4.3,27.1,4.06,5.59-.15,11.44.09,16.4,3,4.07,2.38,7.06,6.22,10.3,9.55C71,46.4,76.43,49.82,84,48.15c4.15-.91,10.53-4.55,14.59-1.88,7.48,4.91-1.79,14.16-5,18.21C89.5,69.74,87.22,77,89.39,83.58A12.48,12.48,0,0,0,94,90c4.9,3.4,11.78,2.29,13.8,9.14,1.08,3.69,1.23,7.53,3.45,10.81a18.85,18.85,0,0,0,7.8,6.16c7.94,3.76,15.74,5.15,22.34,11.43,5.8,5.52,10.63,9,18.52,5.42,3.21-1.47,5.82-3,9.35-1.48a13.47,13.47,0,0,1,5.84,5.88c2.71,4.75,3.13,10.42,5.27,15.41,1.56,3.64,4,6,6.44,9-.09-.11,2.1,2.37,2.17,3.06.54,5-1.82,3.37-3.89,4.16-1.6.61-3,.74-4.13,2.13-3.54,4.21,0,10.78,3.77,13.49,3.31,2.39,7.56,3.08,10.95,5.34,6.16,4.12,4.39,12.75,3.61,19.06-1.25,10.14-3.63,20.63-1,30.74,2.32,8.85,8.7,15.21,14.54,21.89,4.15,4.75,7.42,9.58,9.29,15.67,1.74,5.67,3.17,11.23,5.83,16.58s6.08,10.56,9.26,15.76,9.44,13.56,6.1,20c-3.62,7-10.49.13-16,1.63-3.55,1-6,4.26-7.86,7.19a45.25,45.25,0,0,0-6.25,31.06c.28,1.9,3.17,1.09,2.89-.8Z"/><path class="cls-4" d="M210.26,370.79c-5.47-6.41-15.17-6.79-11.95-17.89,1.9-6.55,7.29-12,7.22-19.11s-7.57-11.06-7.3-18.24a11.18,11.18,0,0,1,3.85-8.38c2-1.59,2.73-1.29,5.15-1,2.05.23,4.23.61,6.18-.32,4.14-2,3.79-6.79,2.23-10.38-1.64-3.76-5.08-7.34-2.53-11.55,1.18-2,3.17-3.81,3.11-6.28-.09-3.78-3.67-5.16-6.93-4.76-2.68.32-5,2.53-7.56,2.75-6.23.53-4.37-7.47-5.22-10.59a1.52,1.52,0,0,0-1.45-1.1c-5.22.13-8.13-5.23-12.24-7.64-1.42-.83-4-.93-5.17-1.82-3.1-2.41,1.8-3.71,3.35-4.58,6.69-3.79,7.87-13.29.79-17.51-2.7-1.61-5.34-3-6-6.32A19.6,19.6,0,0,0,174,219.8c-1.16-2-3-3.57-4.23-5.58-2.71-4.58.8-9,3.68-12.42s4.92-6.77,5.11-11.48c.14-3.6.12-6,1.78-9.34,1-1.95,1.76-3.23,1.54-5.46-.19-1.9-3.2-1.92-3,0,.3,3-2.34,5.33-3,8.11-.77,3.09.19,6.34-.53,9.43-1.41,6-7.79,9.24-9.3,15.26-1.16,4.64,1.36,7.58,4,11,3,4,1.95,10.41,6,13.53,2.89,2.2,6.81,2.28,7.6,6.68.92,5.1-3.37,7.08-6.91,9.07-1.95,1.09-5.58,3.49-4.21,6.35.69,1.44,3,2,4.38,2.36a19,19,0,0,1,8.06,4.39c3.05,2.7,5.85,5.29,10.15,5.18l-1.45-1.1c1.13,4.17-1.2,10.79,4.23,12.76,2.14.78,4.39.06,6.4-.71,1.34-.52,4.73-2.86,6.16-2.11,2.73,1.42,2.14,3.65.9,5.52-1.58,2.39-2.72,4.44-2.2,7.38.59,3.33,3.22,5.65,4.15,8.8,2.26,7.64-4.84,5.5-8.38,5.42a7.33,7.33,0,0,0-5.19,1.51c-4,3.47-5.43,11.5-3.76,16.32,1,3,3.4,5.21,5,7.9,3.15,5.35.68,10.7-1.95,15.73-2.72,5.2-6.09,11.55-3.54,17.5,2.41,5.62,9,6.71,12.73,11.07,1.26,1.47,3.37-.66,2.12-2.12Z"/><path class="cls-4" d="M313.4,53.57l6.08-4.32a33.63,33.63,0,0,1,6.15-3.74c5.07-2.16,10.81-1.72,16.26-2.56a34.34,34.34,0,0,0,14-5.54A3.37,3.37,0,0,0,357.25,36a3,3,0,0,0-.23-2.29,9.37,9.37,0,0,0-5.38-5c-5.49-2-11.56,1.52-17.31.57-4.57-.76-8.45-4.25-13.07-4.48a12.08,12.08,0,0,0-9.52,4.54,22.79,22.79,0,0,0-4.47,9.86,15.25,15.25,0,0,0-.19,7.45,6.84,6.84,0,0,0,5,5"/><path class="cls-4" d="M314.15,54.87c3.43-2.44,6.86-5.33,10.61-7.28s8-2.27,12.16-2.62c6.23-.52,12.12-1.76,17.6-4.92,3.64-2.1,5.62-4.33,3.07-8.38-2.76-4.4-7.72-5.38-12.53-4.83-4,.45-7.85,1.72-11.84.67-3.25-.85-6-2.93-9.32-3.76a13.18,13.18,0,0,0-13.23,4.54c-5.31,6.11-9.57,21.7,1.05,24.86,1.85.55,2.65-2.34.8-2.89-6.8-2-4.17-11.61-2-16.22,2.45-5.18,7.43-8.94,13.31-7.21,3.63,1.07,6.68,3.4,10.48,4s7.54-.63,11.33-1c2.82-.27,6.95-.3,8.66,2.49,2.8,4.56-3.73,6.58-6.29,7.53-4.41,1.63-9,1.92-13.58,2.35-8.91.81-14.66,5-21.8,10.12-1.56,1.11-.06,3.71,1.51,2.59Z"/><path class="cls-4" d="M374,24.18a38.37,38.37,0,0,0,.25,17.13,12.76,12.76,0,0,0,1.34,3.58c1.37,2.28,3.79,3.66,5.88,5.29A25.65,25.65,0,0,1,388,57.8q3.41-6.25,6.27-12.78c1.31-3,2.54-6.07,2.58-9.32.06-6.18-4.2-11.53-8.7-15.77a10.37,10.37,0,0,0-3.11-2.24c-1.85-.74-4-.46-5.8-1.4a3.9,3.9,0,0,0-1.4-.62c-1-.09-1.69.79-2.19,1.6a27.88,27.88,0,0,0-3.29,7.56"/><path class="cls-4" d="M372.57,23.78c-1.22,6.37-1.51,13.58.8,19.77a13.13,13.13,0,0,0,4.48,5.78c3.5,2.9,6.47,5.23,8.9,9.23a1.51,1.51,0,0,0,2.59,0c3.4-6.32,7.91-13.6,8.89-20.84.72-5.3-1.48-10.15-4.7-14.24a29.81,29.81,0,0,0-6-6.08A9.56,9.56,0,0,0,384,15.86c-1.37-.34-4.24-1.32-5.41-1.47-4.75-.6-6.63,6.52-7.69,10.06-.56,1.85,2.34,2.64,2.89.8.69-2.3,1.72-7,4.68-7.65.62-.13,4,.94,4.72,1.15,4.21,1.17,8.06,6.1,10.1,9.77,5.22,9.4-2.11,20.18-6.59,28.52h2.59a30.77,30.77,0,0,0-4.27-5.68c-2.21-2.25-5.29-3.76-7.25-6.2-4.22-5.27-3.54-14.34-2.35-20.6.36-1.89-2.53-2.69-2.89-.8Z"/><path class="cls-3" d="M389.69,319.77"/><path class="cls-3" d="M371.92,0a329.59,329.59,0,0,1-5,37c-4,21-38,37-38,37l-55,28-54,29v76.5"/><line class="cls-3" x1="516.92" y1="346.03" x2="515.25" y2="344.92"/><path class="cls-5" d="M511.92,342.7,257.67,173.49,214.92,145s-12-8-33-17-79-26-93-33c-12.28-6.14-68.37-55.33-82-67.35"/><path class="cls-3" d="M5.41,26.35,3.92,25"/><path id="trainb" class="cls-6" d="M271.92,548.53l-7-362.67s0-9.41-7-12.83"/><text class="cls-7" transform="translate(194.72 174.03)">GOSHEN</text><text class="cls-8" transform="translate(424.96 435.28)"><tspan class="cls-9">K</tspan><tspan x="5.56" y="0">e</tspan><tspan class="cls-10" x="10.21" y="0">r</tspan><tspan x="13.16" y="0">cher</tspan></text><text class="cls-8" transform="translate(322.56 326.28)">College</text><text class="cls-8" transform="translate(273.36 254.28)">Plymouth</text><text class="cls-8" transform="translate(26 168.28)">Lincoln</text><text class="cls-8" transform="translate(237.94 8.06) rotate(90)">15</text><text class="cls-8" transform="translate(257.94 533.06) rotate(90)">15</text><text class="cls-8" transform="matrix(0.66, 0.75, -0.75, 0.66, 444.98, 368.47)">33</text><text class="cls-8" transform="translate(226.2 124.03) rotate(-27.47)">Main/Middlebu<tspan class="cls-11" x="59.55" y="0">r</tspan><tspan class="cls-12" x="62.65" y="0">y</tspan></text><text class="cls-8" transform="matrix(0.66, 0.75, -0.75, 0.66, 9.98, 49.47)">33</text><text class="cls-13" transform="translate(257.94 213.77) rotate(90)">8th St.</text><text class="cls-13" transform="translate(222.98 203.53)">Madison</text></g></g></svg>