<svg xmlns="http://www.w3.org/2000/svg" viewBox="0 0 64.85 187.09"><defs><style>.cls-1{fill:#f28d14;}</style></defs><title>millrace</title><g id="Layer_2" data-name="Layer 2"><g id="Layer_1-2" data-name="Layer 1"><g id="millrace"><path class="cls-1" d="M31.84,184.94c1.52-7.43,3-15.34,7.47-21.67A20.87,20.87,0,0,1,48.09,156c3.61-1.51,7.27-.4,10.86-1.47,5-1.48,6.38-7.15,5.75-11.8-1-7.52-6.79-12.52-10.71-18.57-4.12-6.36-5.76-13.84-8.26-20.9A83.72,83.72,0,0,0,35.33,83.62C25.87,69.9,15.55,56.71,19.26,39.05c1.54-7.33,4.66-15.5,3-23.07S10.69,3.68,4.52.38c-3.4-1.82-6.44,3.36-3,5.18,4.3,2.3,9.69,5,13,8.65,3.87,4.31,1.79,11.19.63,16.26-2,8.76-3.95,17-1.73,25.93,4.41,17.79,19.59,30,26,46.86,3.05,8,4.72,16.61,9.43,23.9,2.28,3.53,5.33,6.53,7.48,10.13a15.08,15.08,0,0,1,2.59,7.36c.06,4.25-3.2,4-6.3,4.16C34.91,149.85,29,169,26.06,183.34c-.77,3.77,5,5.38,5.79,1.6Z"/></g></g></g></svg>
