<svg xmlns="http://www.w3.org/2000/svg" viewBox="0 0 132.37 245.62"><defs><style>.cls-1{fill:#f28d14;}</style></defs><title>orchard loop</title><g id="Layer_2" data-name="Layer 2"><g id="Layer_1-2" data-name="Layer 1"><g id="orchard_loop" data-name="orchard loop"><path class="cls-1" d="M130,240.42a17,17,0,0,0-14.77-5.59,3.1,3.1,0,0,0-3,3c-.1,1.8-15.78,1.29-17.49,1.22-2.28-.09-7.12.32-8.57-1.41-1.27-1.52-1.63-5.12-2.13-7.06a64.14,64.14,0,0,1-2.38-15.47c0-6,1.94-10.21,4.2-15.52,4.31-10.14-9.42-8.89-14.61-12.41-3.51-2.39-1.61-7.79-3.35-11.45-1.36-2.85-3.78-4.87-7.06-4.51l2.89,3.8.66-3.84c.2-1.18-.1-2.85-1.38-3.39-10-4.25-15.29-14.21-13.63-24.88a21.77,21.77,0,0,0,.53-5.56c-.23-2.23-1.78-3.75-2.07-5.77-.26-1.78,1.46-4.24,1.58-6.19a10.16,10.16,0,0,0-1.2-5.29c-2-3.91-5.64-6.08-9.3-8.22-2.64-1.54-4.86-3-6.57-5.67a54.71,54.71,0,0,0-3.75-5.82C22.84,93.59,13.34,92.81,5,92.53l3,3A340.4,340.4,0,0,1,8,21.64l-3,3c11.58,0,23.33-.23,34.82-1.68A39.83,39.83,0,0,0,53.57,19C58.25,16.56,62,12.8,66.37,9.88c4.65-3.11,10.84-5.7,16-2.09,3.84,2.7,5.77,7.78,7.25,12,1.72,5,3.26,10,4.88,15,1.71,5.28,2.88,11.35,5.48,16.27a9.3,9.3,0,0,0,2.54,3.14c1.84,1.4,4.17,1.1,5.84,2.59,3.35,3,2.13,12.42,2.08,16.65-.06,5.49-.72,10.89-1.11,16.35-.3,4.27.05,8.65,2.69,12.18,2.49,3.33,4.84,3.2,8.35,4.39,5.47,1.86,3.43,12.68,3.53,17.57l.75,35.63,1.74,83.13c.08,3.86,6.08,3.87,6,0l-1.61-77.2-.83-39.59c-.12-5.67.11-11.46-.39-17.11-.33-3.69-1.69-7.16-5.56-8.2-2.34-.63-4.73.31-6.66-1.57-2.38-2.32-2.22-6.21-2-9.24.43-6.09,1.13-12.08,1.11-18.2,0-4.81.2-10.2-1.08-14.88-1.17-4.29-3.45-5.31-7.25-6.75-5-1.88-6.28-12-7.83-16.76-1.83-5.64-3.47-11.37-5.57-16.92C91.9,9,87.34,1.26,78.82.15,66.25-1.48,58.95,10.45,48.54,14.74,41.91,17.48,34.38,17.56,27.32,18c-7.44.44-14.88.64-22.33.65a3.08,3.08,0,0,0-3,3A340.4,340.4,0,0,0,2,95.53a3.09,3.09,0,0,0,3,3c4.34.15,8.84.32,13,1.79,5.42,1.93,7.06,6.24,10.25,10.51,2.53,3.39,6,5.2,9.55,7.33,2.54,1.52,6,4,5.58,7.44-.23,2-1.76,3.57-1.83,5.68s1,3.16,1.77,5c1.07,2.63.16,5.12-.19,7.9a26.59,26.59,0,0,0,1,11.16A28.33,28.33,0,0,0,60,173l-1.38-3.39-.66,3.84c-.3,1.71.78,4,2.89,3.8,2.57-.28,2.43,10.48,4.09,12.64,3,3.92,8.83,4,13.06,5.78,3.72,1.56,1.48,2.87.17,6A31,31,0,0,0,76,209.55a49.59,49.59,0,0,0,.62,15.3c.86,4.92,1.73,11.08,4,15.54s6.7,4.18,11.1,4.49c6.31.44,13.13.66,19.39-.46,3.78-.67,6.81-2.51,7-6.59l-3,3a11.43,11.43,0,0,1,10.53,3.83c2.61,2.85,6.85-1.4,4.24-4.24Z"/></g></g></g></svg>