<svg xmlns="http://www.w3.org/2000/svg" viewBox="0 0 125.02 168.09"><defs><style>.cls-1{fill:#f28d14;}</style></defs><title>vine</title><g id="Layer_2" data-name="Layer 2"><g id="Layer_1-2" data-name="Layer 1"><g id="vine"><path class="cls-1" d="M3.72,168c6-1.62,12.2-.72,16.92-5.51,4.47-4.53,5.55-10.92,6.22-17,1.76-15.86,8.42-29.19,19.26-40.88C56.65,93.25,69.45,84.73,81.53,75.2c10.58-8.35,17.05-19,22.22-31.3,5.67-13.47,10.06-28,20.41-38.75,2.67-2.79-1.56-7-4.24-4.24-17.4,18.13-18.25,46-35.68,63.9-10.33,10.61-23.76,18.05-34.74,28-9.95,9-18.74,19.65-23.92,32.16-3.31,8-3.73,15.89-5.24,24.26-.77,4.24-2.41,8.73-6.52,10.7-3.51,1.69-7.93,1.19-11.69,2.21S0,169,3.72,168Z"/></g></g></g></svg>